# xmcd
#
# Track frame offsets:
#	150
#	13739
#	27205
#	41246
#	57387
#	71100
#	85492
#	98829
#	114646
#	126506
#
# Disc length: 1831 seconds
#
# Revision: 0
# Processed by: cddbd v1.5.2PL0 Copyright (c) Steve Scherf et al.
# Submitted via: EasyCDDAExtractor 16.0.6.1
#
DISCID=9107250a
DTITLE=Συλλογικός δίσκος - Λαϊκό τραγούδι 1954-1967, 1964-4
DYEAR=2008
DGENRE=Λαϊκή
TTITLE0=Μενιδιάτης Μιχάλης - Αγωνίες [Μανώλης Χιώτης]
TTITLE1=Μοσχολιού Βίκυ - Δεν μετανιώνω που σ' αγάπησα πολύ [Απόστλος Καλδάρας-
TTITLE1=Αλ. Γκούβερης]
TTITLE2=Καζαντζίδης Στέλιος - Νιώθω μιά κούραση βαριά [Στέλιος Καζαντζίδης-Ιωά
TTITLE2=ννης Βασιλόπουλος]
TTITLE3=Περπινιάδης Βαγγέλης-Νόρμα Ρία - Τι θέλεις από μένα τον αλήτη [Βαγγέλη
TTITLE3=ς Περπινιάδης-Γιώργος Ροβερτάκης]
TTITLE4=Αναγνωστάκης Πέτρος - Το καρναβάλι [Θεόδωρος Δερβενιώτης-Κώστας Βίρβος
TTITLE4=]
TTITLE5=Καζαντζίδης Στέλιος - Παπούτσι από τον τόπο σου [Θεόδωρος Δερβενιώτης-
TTITLE5=Κώστας Βίρβος]
TTITLE6=Τσαουσάκης Πρόδρομος - Όποια πέτρα κι αν σηκώσεις [Πρόδρομος Τσαουσάκη
TTITLE6=ς]
TTITLE7=Ζαγοραίος Σπύρος-Ζαγοραίου Ζωή - Ο διάβολος και το μπουζούκι [Στράτος 
TTITLE7=Καμενίδης-Κώστας Μάνεσης]
TTITLE8=Περπινιάδης Βαγγέλης - Μαρία Μανταλένα [Σπύρος Περιστέρης]
TTITLE9=Λίντα Μαίρη - Τέτοια χαρά δεν θα την δεις [Μανώλης Χιώτης]
EXTD=
EXTT0=
EXTT1=
EXTT2=
EXTT3=
EXTT4=
EXTT5=
EXTT6=
EXTT7=
EXTT8=
EXTT9=
PLAYORDER=
